<svg width="257" height="71" viewBox="0 0 257 71" fill="none" xmlns="http://www.w3.org/2000/svg">
<g clip-path="url(#clip0_1181_2842)">
<path d="M75.8545 53.3965H82.1911C86.5874 53.3965 88.9575 55.7459 88.9575 58.7941C88.9575 61.8423 86.5874 64.2037 82.1911 64.2037H78.6789V70.7459H75.8545V53.3965ZM78.6789 55.7218V61.8664H82.1911C84.8682 61.8664 86.133 60.5772 86.133 58.7941C86.133 57.0109 84.8682 55.7218 82.1911 55.7218H78.6789Z" fill="#43596C"/>
<path d="M109.945 66.2158H103.301L101.68 70.7459H98.5977L105.266 53.3965H107.967L114.636 70.7459H111.553L109.932 66.2158H109.945ZM104.111 63.9387H109.134L106.96 57.7941L106.703 56.6495H106.555L106.297 57.7941L104.099 63.9387H104.111Z" fill="#43596C"/>
<path d="M133.007 63.7097H129.9V70.7459H127.075V53.3965H132.552C136.826 53.3965 139.171 55.7459 139.171 58.5531C139.171 60.5893 137.98 62.3242 135.782 63.1676L140.276 70.7579H137.071L133.007 63.7218V63.7097ZM129.9 55.7338V61.3844H132.552C135.131 61.3844 136.347 60.2399 136.347 58.5531C136.347 56.8664 135.131 55.7338 132.552 55.7338H129.9Z" fill="#43596C"/>
<path d="M152.753 53.3965H155.577V70.7459H152.753V53.3965Z" fill="#43596C"/>
<path d="M169.699 67.6746C171.161 68.1927 172.475 68.5662 174.218 68.5662C175.864 68.5662 177.424 67.7951 177.424 65.9879C177.424 64.6024 176.515 63.8554 173.985 63.0602C171.308 62.1686 169.11 60.7108 169.11 58.1325C169.11 54.759 171.934 53.1445 174.992 53.1445C176.834 53.1445 178.381 53.5662 179.941 54.2168L179.339 56.4939C177.927 55.9518 176.687 55.5783 174.992 55.5783C173.457 55.5783 172.033 56.3975 172.033 58.0361C172.033 59.2771 173.015 60.0963 175.422 60.9156C178.222 61.9036 180.346 63.265 180.346 65.8674C180.346 69.4096 177.362 71 174.206 71C172.438 71 170.719 70.5783 169.098 69.9397L169.675 67.6867L169.699 67.6746Z" fill="#43596C"/>
<path d="M63.3537 62.168H40.1318V62.421H63.3537V62.168Z" fill="#43596C"/>
<path d="M216.857 62.168H193.635V62.421H216.857V62.168Z" fill="#43596C"/>
<path d="M93.2433 2.98828H70.0215V3.24129H93.2433V2.98828Z" fill="#43596C"/>
<path d="M0 25.2528C0 16.6384 7.81021 10.5781 17.3028 10.5781C20.0658 10.5781 23.0745 11.3131 23.7008 11.5179L26.8814 10.6504L27.5445 22.1323H27.5076C27.0533 17.3733 24.499 10.6504 17.3151 10.6504C10.1312 10.6504 9.54171 18.807 9.54171 25.2528C9.54171 31.6986 10.254 39.8552 17.3151 39.8552C24.3762 39.8552 27.0533 33.0842 27.5076 28.3733H27.5445L26.8814 39.8552L23.7008 38.9998C23.0745 39.2046 20.0658 39.9396 17.3028 39.9396C7.81021 39.9396 0 33.8673 0 25.2649V25.2528Z" fill="#43596C"/>
<path d="M125.799 25.2528C125.799 16.6384 133.609 10.5781 143.102 10.5781C145.865 10.5781 148.873 11.3131 149.5 11.5179L152.68 10.6504L153.343 22.1323H153.306C152.852 17.3733 150.298 10.6504 143.114 10.6504C135.93 10.6504 135.341 18.807 135.341 25.2528C135.341 31.6986 136.053 39.8552 143.114 39.8552C150.175 39.8552 152.852 33.0842 153.306 28.3733H153.343L152.68 39.8552L149.5 38.9998C148.873 39.2046 145.865 39.9396 143.102 39.9396C133.609 39.9396 125.799 33.8673 125.799 25.2649V25.2528Z" fill="#43596C"/>
<path d="M66.2887 39.2767V39.3129C64.4958 39.8069 61.7327 40.2526 59.6451 40.2526C54.4997 40.2526 52.584 38.2406 50.9507 33.7346C49.9069 30.8671 49.4402 25.2888 45.8913 25.2888H44.6387V32.4695C44.6387 37.2647 44.6387 39.8069 49.5753 39.8069V39.843H31.5234V39.8069C36.0426 39.8069 36.0426 37.2647 36.0426 32.4695V18.5297C36.0426 13.5659 36.0426 11.1924 31.5234 11.1924V11.1562H46.9474C51.2577 11.1562 60.9836 11.3249 60.9836 18.2044C60.9836 23.8189 52.4612 25.096 47.4877 25.3008V25.337C55.6786 25.337 58.4785 27.9635 60.4801 32.2647C63.1941 38.1322 64.287 39.4815 66.2887 39.2767ZM44.6387 25.2165H45.8913C49.9929 25.2165 51.7858 23.0478 51.7858 18.2044C51.7858 14.3972 50.4104 11.2285 45.8544 11.2285H44.6387V25.2165Z" fill="#43596C"/>
<path d="M178.738 39.8788V39.8427C183.27 39.8427 183.27 37.2885 183.27 32.4812V18.4933C183.27 13.5174 183.27 11.1318 178.738 11.1318V11.0957H196.434V11.1318C191.903 11.1318 191.903 13.5174 191.903 18.4933V32.4812C191.903 37.2885 191.903 39.8427 196.434 39.8427V39.8788H178.738Z" fill="#43596C"/>
<path d="M256.938 29.6144C255.035 32.506 251.277 33.5181 248.33 33.5181C242.926 33.5181 238.714 30.1084 238.334 22.5662H256.508C258.252 15.7831 253.291 11.0723 243.7 11.0723C234.109 11.0723 228.067 17.3253 228.067 26.0964C228.067 34.8674 234.711 40.0964 242.128 40.0964C249.545 40.0964 254.605 35.2891 257 29.6747L256.938 29.6265V29.6144ZM243.7 11.1687C247.863 11.1687 247.74 18.8434 246.856 22.2771H238.321C238.321 22 238.309 21.7229 238.309 21.4337C238.309 18.1687 238.96 11.1687 243.7 11.1687Z" fill="#43596C"/>
<path d="M177.879 34.8069C176.651 36.0117 175.324 36.8309 173.924 36.8309C171.419 36.8309 171.149 34.6502 171.149 31.7587V11.2526H176.491V11.1322V11.0237L171.149 11.0117V0.15625H171.039C170.867 2.87914 170.093 6.48155 168.705 8.83095C166.298 10.337 162.934 10.9153 159.274 10.9996H156.609V11.2526H160.858V32.4093C160.858 37.2165 162.639 40.1081 167.637 40.1081C172.193 40.1081 175.644 37.2767 177.928 34.8671L177.866 34.8189L177.879 34.8069Z" fill="#43596C"/>
<path d="M95.2946 29.6144C93.3911 32.506 89.6334 33.5181 86.6862 33.5181C81.2829 33.5181 77.0708 30.1084 76.6901 22.5662H94.8648C96.6086 15.7831 91.6474 11.0723 82.0565 11.0723C72.4657 11.0723 66.4238 17.3253 66.4238 26.0964C66.4238 34.8674 73.0674 40.0964 80.4847 40.0964C87.9019 40.0964 92.9613 35.2891 95.356 29.6747L95.2946 29.6265V29.6144ZM82.0565 11.1687C86.1581 11.1687 86.0967 18.6385 85.2494 22.1325H76.6778C76.6778 21.9036 76.6655 21.6626 76.6655 21.4217C76.6655 18.1566 77.3164 11.1566 82.0565 11.1566V11.1687ZM76.6778 22.3855H85.188C85.188 22.3855 85.188 22.4217 85.1757 22.4458H76.6778C76.6778 22.4458 76.6778 22.4096 76.6778 22.3855Z" fill="#43596C"/>
<path d="M121.157 32.2649L110.497 10.5781L100.845 29.807C100.845 29.807 100.845 29.8191 100.845 29.8311H100.821V29.8914C98.0697 35.3492 94.9874 40.0601 91.1191 40.0601V40.0962H103.743V40.0601C99.1995 40.0601 98.7206 36.1203 99.9486 32.2649L101.054 30.0841H111.062L112.143 32.3613C114.194 36.6625 114.98 40.0721 110.178 40.0721V40.1082H128.402V40.0721C125.062 40.0721 123.809 37.6504 121.169 32.2769L121.157 32.2649ZM101.164 29.8191L106.187 19.9034L110.915 29.8191H101.164Z" fill="#43596C"/>
<path d="M221.351 11.0723V11.1205C226.631 11.1205 227.27 13.3855 226.042 16.759L219.988 28.7229L214.671 18.1687C212.779 14.4578 211.429 11.1325 216.23 11.1325V11.0843H196.373V11.1325C200.094 11.1325 200.745 12.8795 203.066 17.3855L214.609 39.9879L224.802 19.7711L225.317 18.759C228.105 13.265 229.677 11.1325 232.956 11.1325V11.0843H221.351V11.0723Z" fill="#43596C"/>
<path d="M187.334 6.89157C189.274 6.89157 190.847 5.34884 190.847 3.44578C190.847 1.54273 189.274 0 187.334 0C185.395 0 183.822 1.54273 183.822 3.44578C183.822 5.34884 185.395 6.89157 187.334 6.89157Z" fill="#43596C"/>
</g>
<defs>
<clipPath id="clip0_1181_2842">
<rect width="257" height="71" fill="white"/>
</clipPath>
</defs>
</svg>
