<svg width="257" height="71" viewBox="0 0 257 71" fill="none" xmlns="http://www.w3.org/2000/svg">
<g clip-path="url(#clip0_1181_466)">
<path d="M75.8548 53.3965H82.1914C86.5877 53.3965 88.9578 55.7459 88.9578 58.7941C88.9578 61.8423 86.5877 64.2037 82.1914 64.2037H78.6792V70.7459H75.8548V53.3965ZM78.6792 55.7218V61.8664H82.1914C84.8684 61.8664 86.1333 60.5772 86.1333 58.7941C86.1333 57.0109 84.8684 55.7218 82.1914 55.7218H78.6792Z" fill="white"/>
<path d="M109.945 66.2158H103.301L101.68 70.7459H98.5977L105.266 53.3965H107.968L114.636 70.7459H111.553L109.932 66.2158H109.945ZM104.112 63.9387H109.134L106.961 57.7941L106.703 56.6495H106.555L106.297 57.7941L104.099 63.9387H104.112Z" fill="white"/>
<path d="M133.007 63.7097H129.9V70.7459H127.075V53.3965H132.552C136.826 53.3965 139.171 55.7459 139.171 58.5531C139.171 60.5893 137.98 62.3242 135.782 63.1676L140.277 70.7579H137.072L133.007 63.7218V63.7097ZM129.9 55.7338V61.3844H132.552C135.131 61.3844 136.347 60.2399 136.347 58.5531C136.347 56.8664 135.131 55.7338 132.552 55.7338H129.9Z" fill="white"/>
<path d="M152.753 53.3965H155.578V70.7459H152.753V53.3965Z" fill="white"/>
<path d="M169.7 67.6746C171.161 68.1927 172.475 68.5662 174.219 68.5662C175.865 68.5662 177.424 67.7951 177.424 65.9879C177.424 64.6024 176.516 63.8554 173.986 63.0602C171.309 62.1686 169.111 60.7108 169.111 58.1325C169.111 54.759 171.935 53.1445 174.993 53.1445C176.835 53.1445 178.382 53.5662 179.942 54.2168L179.34 56.4939C177.928 55.9518 176.687 55.5783 174.993 55.5783C173.458 55.5783 172.033 56.3975 172.033 58.0361C172.033 59.2771 173.016 60.0963 175.423 60.9156C178.223 61.9036 180.347 63.265 180.347 65.8674C180.347 69.4096 177.363 71 174.207 71C172.439 71 170.719 70.5783 169.098 69.9397L169.675 67.6867L169.7 67.6746Z" fill="white"/>
<path d="M63.3535 62.168H40.1317V62.421H63.3535V62.168Z" fill="white"/>
<path d="M216.856 62.168H193.634V62.421H216.856V62.168Z" fill="white"/>
<path d="M93.2435 2.98828H70.0217V3.24129H93.2435V2.98828Z" fill="white"/>
<path d="M0 25.2528C0 16.6384 7.81021 10.5781 17.3028 10.5781C20.0658 10.5781 23.0745 11.3131 23.7008 11.5179L26.8814 10.6504L27.5445 22.1323H27.5076C27.0533 17.3733 24.499 10.6504 17.3151 10.6504C10.1312 10.6504 9.54171 18.807 9.54171 25.2528C9.54171 31.6986 10.254 39.8552 17.3151 39.8552C24.3762 39.8552 27.0533 33.0842 27.5076 28.3733H27.5445L26.8814 39.8552L23.7008 38.9998C23.0745 39.2046 20.0658 39.9396 17.3028 39.9396C7.81021 39.9396 0 33.8673 0 25.2649V25.2528Z" fill="white"/>
<path d="M125.798 25.2528C125.798 16.6384 133.609 10.5781 143.101 10.5781C145.864 10.5781 148.873 11.3131 149.499 11.5179L152.68 10.6504L153.343 22.1323H153.306C152.852 17.3733 150.297 10.6504 143.113 10.6504C135.93 10.6504 135.34 18.807 135.34 25.2528C135.34 31.6986 136.052 39.8552 143.113 39.8552C150.175 39.8552 152.852 33.0842 153.306 28.3733H153.343L152.68 39.8552L149.499 38.9998C148.873 39.2046 145.864 39.9396 143.101 39.9396C133.609 39.9396 125.798 33.8673 125.798 25.2649V25.2528Z" fill="white"/>
<path d="M66.2885 39.2767V39.3129C64.4956 39.8069 61.7325 40.2526 59.6449 40.2526C54.4995 40.2526 52.5838 38.2406 50.9505 33.7346C49.9067 30.8671 49.4401 25.2888 45.8911 25.2888H44.6385V32.4695C44.6385 37.2647 44.6385 39.8069 49.5751 39.8069V39.843H31.5233V39.8069C36.0424 39.8069 36.0424 37.2647 36.0424 32.4695V18.5297C36.0424 13.5659 36.0424 11.1924 31.5233 11.1924V11.1562H46.9472C51.2575 11.1562 60.9835 11.3249 60.9835 18.2044C60.9835 23.8189 52.461 25.096 47.4875 25.3008V25.337C55.6784 25.337 58.4783 27.9635 60.48 32.2647C63.1939 38.1322 64.2868 39.4815 66.2885 39.2767ZM44.6385 25.2165H45.8911C49.9927 25.2165 51.7856 23.0478 51.7856 18.2044C51.7856 14.3972 50.4102 11.2285 45.8542 11.2285H44.6385V25.2165Z" fill="white"/>
<path d="M178.738 39.8788V39.8427C183.27 39.8427 183.27 37.2885 183.27 32.4812V18.4933C183.27 13.5174 183.27 11.1318 178.738 11.1318V11.0957H196.434V11.1318C191.903 11.1318 191.903 13.5174 191.903 18.4933V32.4812C191.903 37.2885 191.903 39.8427 196.434 39.8427V39.8788H178.738Z" fill="white"/>
<path d="M256.939 29.6144C255.035 32.506 251.277 33.5181 248.33 33.5181C242.927 33.5181 238.715 30.1084 238.334 22.5662H256.509C258.253 15.7831 253.291 11.0723 243.701 11.0723C234.11 11.0723 228.068 17.3253 228.068 26.0964C228.068 34.8674 234.711 40.0964 242.129 40.0964C249.546 40.0964 254.605 35.2891 257 29.6747L256.939 29.6265V29.6144ZM243.701 11.1687C247.864 11.1687 247.741 18.8434 246.857 22.2771H238.322C238.322 22 238.31 21.7229 238.31 21.4337C238.31 18.1687 238.96 11.1687 243.701 11.1687Z" fill="white"/>
<path d="M177.879 34.8069C176.651 36.0117 175.324 36.8309 173.924 36.8309C171.419 36.8309 171.149 34.6502 171.149 31.7587V11.2526H176.491V11.1322V11.0237L171.149 11.0117V0.15625H171.039C170.867 2.87914 170.093 6.48155 168.705 8.83095C166.298 10.337 162.934 10.9153 159.274 10.9996H156.609V11.2526H160.858V32.4093C160.858 37.2165 162.639 40.1081 167.637 40.1081C172.193 40.1081 175.644 37.2767 177.928 34.8671L177.866 34.8189L177.879 34.8069Z" fill="white"/>
<path d="M95.2943 29.6144C93.3909 32.506 89.6332 33.5181 86.6859 33.5181C81.2826 33.5181 77.0705 30.1084 76.6898 22.5662H94.8645C96.6083 15.7831 91.6471 11.0723 82.0563 11.0723C72.4654 11.0723 66.4236 17.3253 66.4236 26.0964C66.4236 34.8674 73.0672 40.0964 80.4844 40.0964C87.9017 40.0964 92.9611 35.2891 95.3557 29.6747L95.2943 29.6265V29.6144ZM82.0563 11.1687C86.1579 11.1687 86.0965 18.6385 85.2491 22.1325H76.6776C76.6776 21.9036 76.6653 21.6626 76.6653 21.4217C76.6653 18.1566 77.3161 11.1566 82.0563 11.1566V11.1687ZM76.6776 22.3855H85.1877C85.1877 22.3855 85.1877 22.4217 85.1755 22.4458H76.6776C76.6776 22.4458 76.6776 22.4096 76.6776 22.3855Z" fill="white"/>
<path d="M121.156 32.2649L110.497 10.5781L100.845 29.807C100.845 29.807 100.845 29.8191 100.845 29.8311H100.82V29.8914C98.0697 35.3492 94.9873 40.0601 91.1191 40.0601V40.0962H103.743V40.0601C99.1995 40.0601 98.7205 36.1203 99.9485 32.2649L101.054 30.0841H111.062L112.143 32.3613C114.194 36.6625 114.98 40.0721 110.178 40.0721V40.1082H128.402V40.0721C125.062 40.0721 123.809 37.6504 121.169 32.2769L121.156 32.2649ZM101.164 29.8191L106.187 19.9034L110.915 29.8191H101.164Z" fill="white"/>
<path d="M221.351 11.0723V11.1205C226.631 11.1205 227.27 13.3855 226.042 16.759L219.987 28.7229L214.67 18.1687C212.779 14.4578 211.428 11.1325 216.23 11.1325V11.0843H196.373V11.1325C200.094 11.1325 200.744 12.8795 203.065 17.3855L214.609 39.9879L224.801 19.7711L225.317 18.759C228.105 13.265 229.677 11.1325 232.955 11.1325V11.0843H221.351V11.0723Z" fill="white"/>
<path d="M187.334 6.89157C189.274 6.89157 190.847 5.34884 190.847 3.44578C190.847 1.54273 189.274 0 187.334 0C185.395 0 183.822 1.54273 183.822 3.44578C183.822 5.34884 185.395 6.89157 187.334 6.89157Z" fill="white"/>
</g>
<defs>
<clipPath id="clip0_1181_466">
<rect width="257" height="71" fill="white"/>
</clipPath>
</defs>
</svg>
